<svg width="64" height="64" viewBox="0 0 64 64" fill="none" xmlns="http://www.w3.org/2000/svg">
<path d="M48.2581 23.8393V20.3642C48.2581 11.3226 40.9355 4 31.8939 4C22.8523 4 15.5297 11.3226 15.5297 20.3639V23.8389C10.9601 26.0258 8.27637 30.4019 8.27051 35.2903V46.9935C8.27811 54.3632 14.2712 60.3566 21.6413 60.3636H42.1464C49.5165 60.3564 55.5096 54.3632 55.517 46.9935V35.2903C55.5112 30.402 52.8275 26.0258 48.2581 23.8393ZM31.8939 10.9055C37.0912 10.9055 41.3525 15.1668 41.3525 20.3639V22.4573H22.4352V20.3639C22.4352 15.1668 26.6965 10.9055 31.8939 10.9055ZM48.2581 46.9935C48.2581 50.3548 45.5077 53.1052 42.1465 53.1052H21.6414C18.2801 53.1052 15.5297 50.3548 15.5297 46.9935V35.2903C15.5297 31.929 18.2801 29.1786 21.6414 29.1786H42.1465C45.5077 29.1786 48.2581 31.929 48.2581 35.2903V46.9935Z" fill="url(#paint0_linear_451_3181)" stroke="url(#paint1_linear_451_3181)" stroke-width="1.74"/>
<path d="M30.5442 36.4184H33.2438C34.9889 36.4184 36.4072 37.8367 36.4072 39.5818C36.4072 41.3269 34.9889 42.7452 33.2438 42.7452H30.5442C28.7991 42.7452 27.3808 41.3269 27.3808 39.5818C27.3808 37.8367 28.7991 36.4184 30.5442 36.4184Z" fill="url(#paint2_linear_451_3181)"/>
<defs>
<linearGradient id="paint0_linear_451_3181" x1="7.79587" y1="4.54456" x2="64.8139" y2="53.8276" gradientUnits="userSpaceOnUse">
<stop stop-color="#F9D423"/>
<stop offset="0.515624" stop-color="#FF4E50"/>
<stop offset="0.991304" stop-color="#8A2387"/>
</linearGradient>
<linearGradient id="paint1_linear_451_3181" x1="7.79587" y1="4.54456" x2="64.8139" y2="53.8276" gradientUnits="userSpaceOnUse">
<stop stop-color="#F9D423"/>
<stop offset="0.515624" stop-color="#FF4E50"/>
<stop offset="0.991304" stop-color="#8A2387"/>
</linearGradient>
<linearGradient id="paint2_linear_451_3181" x1="27.0593" y1="36.5313" x2="33.9997" y2="46.0326" gradientUnits="userSpaceOnUse">
<stop stop-color="#F9D423"/>
<stop offset="0.515624" stop-color="#FF4E50"/>
<stop offset="0.991304" stop-color="#8A2387"/>
</linearGradient>
</defs>
</svg>
